<svg id="Layer_2" data-name="Layer 2" xmlns="http://www.w3.org/2000/svg" viewBox="0 0 50 50"><defs><style>.cls-1{fill:#231f20;}</style></defs><path class="cls-1" d="M18.8,10.1a.59.59,0,0,0-.21.12,2.24,2.24,0,0,1,.08.39l.13-.12c.1-.11.15-.19.15-.25S18.9,10.1,18.8,10.1Z"/><path class="cls-1" d="M49.11,12.32a1.85,1.85,0,0,1-.42,1c-.28.4-.86,1.13-1.74,2.21a49.62,49.62,0,0,0-4.2,6,34.65,34.65,0,0,0-2.7,5.53A12.38,12.38,0,0,0,39.14,31a2.25,2.25,0,0,0,.29,1.31,1.06,1.06,0,0,0,.92.41,2.4,2.4,0,0,0,1.06-.25,6.79,6.79,0,0,0,1.08-.69L43.62,31c.5-.34,1-.7,1.47-1.09L46.21,29c.27-.23.47-.38.6-.48v1.41c-1.13,1.21-2.09,2.19-2.87,2.93s-1.58,1.41-2.36,2a13.23,13.23,0,0,1-1.95,1.26,3.05,3.05,0,0,1-1.33.38,2.58,2.58,0,0,1-2.16-1.12,4.79,4.79,0,0,1-.83-2.9,11.84,11.84,0,0,1,.72-4,21.82,21.82,0,0,1,2.06-4.14q1.33-2.13,3.34-4.78a10.49,10.49,0,0,0,1.5-2.21.36.36,0,0,0-.09-.24.26.26,0,0,0-.2-.1c-.22,0-.92.57-2.08,1.71s-2.66,2.83-4.48,5-3.79,4.86-5.9,7.92l-1.13,1.67a19.92,19.92,0,0,1-1.34,1.84,1,1,0,0,1-.68.43c-.33,0-.62-.38-.86-1.15a7.92,7.92,0,0,1-.37-2.46,3.9,3.9,0,0,1,.45-1.71q.46-.93,2-3.3c1-1.59,1.86-2.92,2.52-4s1.39-2.41,2.19-4c.56-1.08,1-1.94,1.24-2.57a4.46,4.46,0,0,0,.4-1.7c0-.42-.11-.63-.32-.63q-.67,0-2.55,2.07a58.13,58.13,0,0,0-4.62,6.15q-2.74,4.09-5.74,9.46c-.65,1.22-1.12,2-1.39,2.47a1.13,1.13,0,0,1-.91.63c-.41,0-.8-.51-1.16-1.52a7.64,7.64,0,0,1-.55-2.46,1.32,1.32,0,0,1,.22-.68c1.56-2.39,2.85-4.43,3.86-6.1s1.91-3.26,2.69-4.77a34.38,34.38,0,0,0,1.71-3.71,7.33,7.33,0,0,0,.53-2.3c0-.58-.23-.88-.69-.88a4.67,4.67,0,0,0-1.94.84c-.92.56-2.07,1.32-3.47,2.29-1,.72-1.93,1.32-2.67,1.78-.06.21-.12.44-.18.67l-.75,2.75a35.37,35.37,0,0,1-1.45,4.32c-.6,1.48-1.45,3.43-2.56,5.87l3.63-2.25V30l-4.73,3.06c-1,2-2.09,3.95-3.14,5.75s-2,3.29-2.8,4.47A22.26,22.26,0,0,1,3.49,46q-.89.93-1.32.93a1.11,1.11,0,0,1-.92-.44,1.56,1.56,0,0,1-.36-1q0-2.2,2.16-5.52a32,32,0,0,1,6.85-7q2-4.47,3.35-8.13t2-6.24h0l-.25,0c-.39,0-.59-.25-.59-.76a18.75,18.75,0,0,1,.25-2,10.71,10.71,0,0,1,.52-2.17A5.88,5.88,0,0,1,16.48,12c-.05-.38-.24-.57-.56-.57a3,3,0,0,0-1.42.63,11,11,0,0,0-2,1.89,18,18,0,0,0-2,2.91,25.43,25.43,0,0,0-1.72,3.66,32.45,32.45,0,0,0-1.19,3.75A12.18,12.18,0,0,0,7.12,27c0,.18,0,.57.07,1.16l.4-.69a6.37,6.37,0,0,1,.58-.84A4.5,4.5,0,0,1,8.92,26a2,2,0,0,1,.55-.34c.22-.09.32-.08.32,0a9.38,9.38,0,0,1-1,1.54C8.1,28.14,7.52,29,7,29.76A5.63,5.63,0,0,1,5.88,31a2.1,2.1,0,0,1-1.16.57A.68.68,0,0,1,4,31a6.71,6.71,0,0,1-.17-1.82,28.26,28.26,0,0,1,.9-6.67A26.66,26.66,0,0,1,7.16,16a18,18,0,0,1,3-4,17.94,17.94,0,0,1,3.46-2.79,5.72,5.72,0,0,1,2.64-1,2.13,2.13,0,0,1,1.82.85,2.83,2.83,0,0,1,.5,1.11,2.24,2.24,0,0,1,.08.39,5.53,5.53,0,0,1,.06.84v.11A34.32,34.32,0,0,1,23.1,9.11a10.92,10.92,0,0,1,3.57-1.18c.34,0,.65.26.95.77a8.36,8.36,0,0,1,.75,1.78,6.12,6.12,0,0,1,.32,1.29,8,8,0,0,1-.47,2.46c-.31.95-.73,2.05-1.25,3.3s-1.19,2.82-2,4.69c.62-.91,1.21-1.75,1.76-2.53s1.12-1.53,1.67-2.26l1.68-2.23a25.38,25.38,0,0,1,2.6-2.93A22.76,22.76,0,0,1,35.41,10a4,4,0,0,1,1.7-.89,1.37,1.37,0,0,1,1.11.78,3.13,3.13,0,0,1,.49,1.69A7.79,7.79,0,0,1,38,13.83q-.68,1.68-2,4.29t-3.44,6.74c1.35-1.65,2.76-3.34,4.22-5.09s2.55-3,3.26-3.81a20.32,20.32,0,0,1,1.78-1.84c.65-.57,1.31-1.19,2-1.85l1.55-1.56a7.85,7.85,0,0,1,1-.88,1.48,1.48,0,0,1,.82-.3c.31,0,.7.41,1.16,1.22A4.85,4.85,0,0,1,49.11,12.32Z"/></svg>