<?xml version="1.0" encoding="utf-8"?>
<!-- Generator: Adobe Illustrator 25.1.0, SVG Export Plug-In . SVG Version: 6.00 Build 0)  -->
<svg version="1.1" id="Layer_2" xmlns="http://www.w3.org/2000/svg" xmlns:xlink="http://www.w3.org/1999/xlink" x="0px" y="0px"
	 width="50px" height="50px" viewBox="0 0 50 50" style="enable-background:new 0 0 50 50;" xml:space="preserve">
<g>
	<path d="M18.8,10.1c-0.03,0-0.1,0.04-0.21,0.12c0.04,0.12,0.06,0.25,0.08,0.39c0.04-0.03,0.08-0.08,0.13-0.12
		c0.1-0.11,0.15-0.19,0.15-0.25C18.95,10.15,18.9,10.1,18.8,10.1z"/>
	<path d="M49.11,12.32c0,0.29-0.14,0.63-0.42,1.02c-0.28,0.4-0.86,1.13-1.74,2.21c-1.61,1.99-3.01,3.99-4.2,6.01
		c-1.19,2.02-2.09,3.87-2.7,5.53c-0.61,1.67-0.91,2.99-0.91,3.95c0,0.6,0.09,1.04,0.29,1.31s0.5,0.41,0.92,0.41
		c0.38,0,0.73-0.09,1.06-0.25c0.32-0.16,0.69-0.39,1.08-0.69c0.4-0.3,0.78-0.59,1.13-0.86c0.5-0.34,0.99-0.7,1.47-1.09
		c0.48-0.39,0.86-0.7,1.12-0.92c0.27-0.23,0.47-0.38,0.6-0.48v1.41c-1.13,1.21-2.09,2.19-2.87,2.93c-0.8,0.74-1.58,1.41-2.36,2
		c-0.79,0.59-1.44,1.01-1.95,1.26c-0.52,0.2599-0.96,0.38-1.33,0.38c-0.88,0-1.6-0.3701-2.16-1.1201c-0.55-0.75-0.83-1.72-0.83-2.9
		c0-1.36,0.24-2.71,0.72-4.04c0.48-1.34,1.17-2.71,2.06-4.14c0.89-1.42,2-3.01,3.34-4.78c1-1.31,1.5-2.04,1.5-2.21
		c0-0.09-0.03-0.17-0.09-0.2401c-0.06-0.0699-0.13-0.1-0.2-0.1c-0.22,0-0.92,0.57-2.08,1.71c-1.16,1.14-2.66,2.83-4.48,5.04
		c-1.82,2.22-3.79,4.86-5.9,7.92c-0.12,0.17-0.49,0.72-1.13,1.67c-0.64,0.94-1.08,1.56-1.34,1.84c-0.26,0.29-0.4901,0.43-0.68,0.43
		c-0.33,0-0.6201-0.38-0.86-1.15c-0.25-0.77-0.37-1.59-0.37-2.46c0-0.53,0.15-1.1,0.45-1.71c0.31-0.62,0.97-1.72,1.98-3.3
		c1.02-1.59,1.86-2.92,2.52-4.01c0.67-1.09,1.39-2.41,2.19-3.96c0.56-1.08,0.97-1.94,1.24-2.57c0.27-0.64,0.4-1.21,0.4-1.7
		c0-0.42-0.11-0.63-0.32-0.63c-0.45,0-1.3,0.69-2.55,2.07s-2.78,3.43-4.62,6.15c-1.83,2.73-3.75,5.88-5.7401,9.46
		c-0.65,1.22-1.12,2.04-1.39,2.47c-0.27,0.42-0.58,0.63-0.91,0.63c-0.41,0-0.8-0.51-1.16-1.52c-0.37-1.02-0.55-1.84-0.55-2.46
		c0-0.21,0.0699-0.43,0.22-0.68c1.56-2.39,2.85-4.43,3.86-6.1s1.91-3.26,2.69-4.77c0.78-1.5,1.35-2.74,1.71-3.71
		c0.35-0.97,0.53-1.74,0.53-2.3c0-0.58-0.23-0.88-0.69-0.88c-0.3799,0-1.03,0.28-1.94,0.84c-0.92,0.56-2.0699,1.32-3.47,2.29
		c-1.04,0.72-1.93,1.32-2.67,1.78c-0.06,0.21-0.12,0.44-0.18,0.67c-0.38,1.39-0.63,2.3-0.75,2.75c-0.37,1.41-0.85,2.84-1.45,4.32
		c-0.6,1.48-1.45,3.43-2.56,5.87l3.63-2.25V30l-4.73,3.06c-1.05,2.03-2.09,3.95-3.14,5.75c-1.05,1.8-1.9901,3.29-2.8,4.47
		s-1.52,2.07-2.11,2.69C2.9,46.59,2.46,46.9,2.17,46.9c-0.38,0-0.68-0.14-0.92-0.44c-0.24-0.29-0.36-0.63-0.36-1.03
		c0-1.47,0.72-3.31,2.16-5.52c1.45-2.21,3.73-4.56,6.85-7.05c1.35-2.98,2.47-5.69,3.35-8.13c0.88-2.43,1.55-4.51,2.01-6.24v-0.01
		c-0.09,0.02-0.17,0.03-0.25,0.03c-0.39,0-0.59-0.25-0.59-0.76c0-0.28,0.09-0.94,0.25-1.97c0.17-1.02,0.34-1.75,0.52-2.17
		c0.19-0.42,0.63-0.96,1.29-1.59C16.43,11.64,16.24,11.45,15.92,11.45s-0.79,0.21-1.42,0.6299c-0.62,0.42-1.29,1.05-2.02,1.89
		c-0.72,0.83-1.4,1.8-2.03,2.91c-0.63,1.08-1.2,2.31-1.72,3.66c-0.51,1.35-0.91,2.6-1.19,3.75c-0.28,1.14-0.42,2.06-0.42,2.75
		c0,0.18,0.03,0.57,0.07,1.16c0.11-0.19,0.24-0.42,0.4-0.69c0.15-0.27,0.35-0.55,0.58-0.84c0.24-0.28,0.49-0.52,0.75-0.71
		c0.16-0.14,0.34-0.25,0.55-0.34c0.22-0.09,0.32-0.08,0.32,0.03c0,0.08-0.33,0.6-1.0099,1.54c-0.6801,0.95-1.26,1.8-1.76,2.57
		c-0.29,0.43-0.67,0.84-1.14,1.22c-0.48,0.38-0.86,0.57-1.16,0.57c-0.36,0-0.59-0.19-0.7-0.57c-0.12-0.38-0.17-0.99-0.17-1.82
		c0-2,0.3-4.22,0.9-6.67s1.4-4.6,2.41-6.45c0.82-1.47,1.82-2.8,3.01-3.99c1.18-1.19,2.34-2.12,3.46-2.79c1.12-0.67,2-1,2.64-1
		c0.79,0,1.39,0.28,1.82,0.85c0.23,0.3,0.4,0.67,0.5,1.11c0.04,0.12,0.06,0.25,0.08,0.39c0.04,0.26,0.06,0.54,0.06,0.84v0.11
		c1.59-1.03,3.05-1.85,4.37-2.45c1.72-0.78,2.91-1.18,3.57-1.18c0.34,0,0.65,0.26,0.95,0.77c0.29,0.5099,0.55,1.1,0.75,1.78
		c0.21,0.67,0.32,1.1,0.32,1.29c0,0.7-0.16,1.52-0.47,2.46c-0.31,0.95-0.73,2.05-1.25,3.3c-0.53,1.25-1.1899,2.82-1.97,4.69
		c0.62-0.91,1.21-1.75,1.76-2.53c0.56-0.77,1.12-1.53,1.67-2.26c0.55-0.74,1.11-1.48,1.68-2.23c0.77-1.02,1.64-2,2.6-2.9301
		c0.96-0.93,1.86-1.69,2.7-2.28c0.83-0.6,1.4-0.89,1.7-0.89c0.41,0,0.78,0.26,1.11,0.78c0.33,0.53,0.4901,1.09,0.4901,1.69
		c0,0.39-0.23,1.15-0.68,2.2599c-0.45,1.1201-1.11,2.55-1.97,4.29c-0.87,1.74-2.02,3.99-3.44,6.74c1.35-1.65,2.76-3.34,4.22-5.09
		c1.46-1.74,2.55-3.0099,3.2599-3.81c0.71-0.81,1.3-1.42,1.78-1.84c0.65-0.57,1.31-1.19,1.97-1.85c0.65-0.66,1.17-1.18,1.55-1.56
		s0.72-0.67,1.02-0.88c0.29-0.2,0.57-0.3,0.82-0.3c0.31,0,0.7,0.41,1.16,1.22C48.87,11.57,49.11,12.09,49.11,12.32z"/>
</g>
</svg>
